<svg width="24" height="21" viewBox="0 0 24 21" fill="none" xmlns="http://www.w3.org/2000/svg">
<g clip-path="url(#clip0_1329_7568)">
<path d="M12.0076 3.97541C12.0076 3.97541 14.601 0.242462 18.6035 1.14698C23.8802 2.3243 24.7946 9.60355 21.7066 12.8771C19.323 15.404 15.6653 18.0745 13.5816 19.4959C12.6222 20.1563 11.363 20.1563 10.4036 19.4959C8.31992 18.0601 4.66221 15.404 2.2787 12.8771C-0.794382 9.60355 0.120046 2.3243 5.39675 1.14698C9.41424 0.242462 12.0076 3.97541 12.0076 3.97541Z" fill="#FF6A69"/>
<path d="M17.3599 1.86396C17.7047 1.86396 18.0495 1.90704 18.3942 1.97882C20.8527 2.52441 21.8421 4.50574 22.2019 5.63999C22.9814 7.99462 22.5017 10.7369 21.0326 12.2875C18.6941 14.7714 15.0363 17.4275 13.0576 18.7915C12.7428 19.0068 12.383 19.1217 11.9932 19.1217C11.6035 19.1217 11.2437 19.0068 10.9289 18.7915C8.96514 17.4419 5.30743 14.7857 2.96889 12.3019C1.49981 10.7513 1.02011 8.00898 1.79962 5.65435C2.17438 4.5201 3.14878 2.53877 5.60724 1.97882C5.95202 1.90704 6.29681 1.86396 6.64159 1.86396C9.3399 1.86396 11.1538 4.3191 11.2437 4.44831C11.4086 4.69239 11.6934 4.83597 11.9932 4.83597C12.2931 4.83597 12.5779 4.69239 12.7428 4.44831C12.8777 4.27602 14.6916 1.86396 17.3599 1.86396ZM17.3599 1.00251C14.0769 1.00251 12.0232 3.9458 12.0082 3.97452C11.9783 3.9458 9.92454 1.00251 6.64159 1.00251C6.25184 1.00251 5.8321 1.04559 5.39737 1.14609C0.120667 2.3234 -0.793761 9.60266 2.29431 12.8762C4.67782 15.4031 8.33553 18.0736 10.4192 19.495C10.8989 19.8252 11.4536 19.9831 12.0082 19.9831C12.5629 19.9831 13.1175 19.8252 13.5972 19.495C15.6809 18.0592 19.3387 15.4031 21.7222 12.8762C24.8102 9.60266 23.8958 2.3234 18.6191 1.14609C18.1694 1.04559 17.7496 1.00251 17.3599 1.00251Z" fill="#CF2E1B"/>
<path d="M23.6544 5.55444C23.6244 5.45394 23.5944 5.35344 23.5644 5.25294C22.7849 2.85523 21.016 1.1754 18.7225 0.672892C15.3496 -0.0880561 12.9511 2.10864 12.0067 3.1711C11.0622 2.09428 8.64876 -0.102414 5.27586 0.658534C2.9823 1.1754 1.22839 2.84087 0.433891 5.23858C-0.495528 8.08136 0.0891061 11.2831 1.90297 13.207C2.71247 14.0684 3.68686 14.9586 4.67624 15.7913C6.655 17.4568 8.76868 18.9787 10.1028 19.8976C10.6725 20.2852 11.3321 20.4862 11.9917 20.4862C12.6513 20.4862 13.3108 20.2852 13.8805 19.8976C15.9042 18.5049 19.6519 15.7913 22.0804 13.207C23.8343 11.3549 24.4489 8.31108 23.6544 5.55444ZM10.7175 19.0936C9.62315 18.3326 8.00416 17.184 6.38517 15.8775C5.066 14.8294 3.74682 13.6664 2.68249 12.5465C1.13845 10.8954 0.628769 8.02393 1.43826 5.54009C1.82802 4.33406 2.89235 2.2235 5.53071 1.63484C5.92046 1.5487 6.29523 1.50563 6.655 1.50563C9.5332 1.50563 11.392 4.00383 11.5569 4.23355C11.6019 4.29098 11.6469 4.34841 11.7068 4.39149C11.7968 4.44892 11.9017 4.47763 11.9917 4.47763C12.0966 4.47763 12.1865 4.44892 12.2765 4.39149C12.3365 4.34841 12.3964 4.29098 12.4264 4.23355C12.5763 4.01819 14.9598 0.830824 18.4526 1.62049C21.091 2.20914 22.1403 4.3197 22.5451 5.52573C22.71 6.02824 22.8149 6.54511 22.8749 7.06198C23.0997 9.1151 22.5301 11.2113 21.3008 12.5322C18.9323 15.0448 15.2446 17.7153 13.2659 19.0792C12.5163 19.6248 11.482 19.6248 10.7175 19.0936Z" fill="#F2473A"/>
<path d="M21.1968 8.28176C20.9119 8.28176 20.6721 8.05204 20.6721 7.77925C20.6721 6.75987 19.7427 3.80222 16.9094 3.80222C16.6246 3.80222 16.3848 3.5725 16.3848 3.29971C16.3848 3.02692 16.6246 2.7972 16.9094 2.7972C20.2673 2.7972 21.7214 6.08507 21.7214 7.77925C21.7214 8.0664 21.4816 8.28176 21.1968 8.28176Z" fill="#F5B2C7"/>
<path opacity="0.05" d="M22.0962 13.2064C19.6677 15.7907 15.9051 18.5187 13.8963 19.897C13.3267 20.2846 12.6671 20.4856 12.0075 20.4856C11.3479 20.4856 10.6883 20.2846 10.1187 19.897C8.76953 18.9781 6.67084 17.4562 4.69208 15.7907C4.94692 15.8195 5.23174 15.8338 5.56153 15.8482C5.81637 15.8625 6.1012 15.8769 6.40101 15.8769C10.6134 15.92 18.5434 14.8862 22.9057 7.06138C23.0406 6.8173 23.1755 6.55886 23.3104 6.28607C23.4304 6.04199 23.5503 5.78356 23.6702 5.52512C24.4497 8.31048 23.8351 11.3543 22.0962 13.2064Z" fill="#231F20"/>
<path d="M7.18055 14.1253C7.1056 14.1253 7.01565 14.1109 6.9407 14.0678C2.21865 11.7132 2.89323 7.67875 2.90822 7.63568C2.95319 7.36289 3.22302 7.17624 3.50785 7.23367C3.79267 7.27674 3.98755 7.53518 3.92758 7.80797C3.8976 7.95155 3.40291 11.1676 7.4204 13.1633C7.67524 13.2925 7.78018 13.594 7.64526 13.8381C7.55532 14.0248 7.37543 14.1253 7.18055 14.1253Z" fill="#F5B2C7"/>
</g>
<defs>
<clipPath id="clip0_1329_7568">
<rect width="24" height="20" fill="white" transform="translate(0 0.5)"/>
</clipPath>
</defs>
</svg>
