<svg width="22" height="25" viewBox="0 0 22 25" fill="none" xmlns="http://www.w3.org/2000/svg">
<g clip-path="url(#clip0_1570_14954)">
<path d="M21.8063 9.35203C22.2466 8.01393 21.9648 6.50429 21.0313 5.09757C20.0096 3.55361 18.5477 2.71301 16.9096 2.71301C15.9232 2.71301 14.8839 3.03895 13.9328 3.63938C13.3339 4.0168 12.8055 4.47998 12.3475 5.01179C12.2594 5.11472 12.189 5.21765 12.1009 5.32058C11.96 4.73731 11.7839 4.2055 11.5373 3.708C10.6213 1.70086 8.8423 0.5 6.78146 0.5C5.67177 0.5 4.54447 0.860257 3.52285 1.56362C2.36032 2.38706 1.62053 3.45068 1.40916 4.68584C1.18018 6.02394 1.5853 7.49928 2.55408 8.82022C2.97681 9.4035 3.48762 9.91815 4.06889 10.347C4.17457 10.4328 4.28026 10.5014 4.38594 10.5872C3.71661 10.7931 3.11773 11.0504 2.57169 11.3592C1.18018 12.1312 0.281859 13.2977 0.0528754 14.653C-0.211336 16.1455 0.334701 17.7409 1.5853 19.1476C2.67737 20.3828 3.91036 21.0175 5.24903 21.0175C5.28426 21.0175 5.3371 21.0175 5.37233 21.0175C5.14335 21.292 4.96721 21.6179 4.86152 22.0125C4.70299 22.6644 4.82629 23.3334 5.23142 23.8138C5.60131 24.2598 6.14735 24.5171 6.72861 24.5171C7.06328 24.5171 7.41556 24.4314 7.73262 24.2598C8.70139 23.7623 9.56448 22.9046 10.1634 21.8409C10.4804 21.292 10.7446 20.6916 10.956 20.0225C11.0088 19.8681 11.0441 19.7309 11.0969 19.5765C12.0657 21.0518 13.5805 21.9267 15.2362 21.9267C16.3987 21.9267 17.5789 21.515 18.6357 20.7259C19.8335 19.8338 20.5733 18.7187 20.7494 17.4664C20.9432 16.1626 20.5204 14.8074 19.5517 13.555C19.2346 13.1605 18.8823 12.7831 18.4948 12.4571C18.5477 12.4399 18.6181 12.4056 18.671 12.3885C20.2738 11.7537 21.3835 10.6901 21.8063 9.35203Z" fill="#2EAF37"/>
<path d="M6.90517 23.419C6.58811 23.419 6.30629 23.2818 6.11253 23.0416C5.88355 22.7671 5.81309 22.3726 5.91878 21.9952C6.07731 21.3604 6.62334 20.9315 7.08131 20.6399C7.8211 20.1596 8.36714 19.6106 8.86033 18.9072C8.91317 18.8386 8.96602 18.77 9.01886 18.7014C9.10693 18.5813 9.21261 18.4784 9.24784 18.3583C9.30068 18.1867 9.3183 18.0666 9.26546 17.998C9.23023 17.9465 9.12454 17.9294 9.0717 17.9294C9.05409 17.9294 9.05409 17.9294 9.03647 17.9294C8.78988 18.221 8.52566 18.4955 8.24384 18.7357C7.31029 19.542 6.35913 19.9365 5.42558 19.9365C4.36874 19.9365 3.38235 19.4219 2.46642 18.3926C1.40957 17.1917 0.933992 15.8708 1.14536 14.6528C1.33912 13.5548 2.06129 12.6285 3.22382 11.9937C3.96361 11.582 4.79148 11.2904 5.84832 11.0502C6.04208 10.9473 6.14776 10.8272 6.16538 10.7242C6.18299 10.5184 5.91878 10.3125 5.81309 10.2439C5.4432 10.038 5.12614 9.81502 4.80909 9.57485C4.29828 9.19744 3.85793 8.75141 3.48803 8.23675C2.66017 7.10452 2.30789 5.8865 2.50165 4.77142C2.64256 3.75927 3.22382 2.90151 4.21021 2.21531C5.05569 1.63203 6.00685 1.32324 6.92278 1.32324C8.59612 1.32324 10.0581 2.31824 10.8331 3.99944C11.0973 4.5484 11.2911 5.13168 11.432 5.81788C11.432 5.81788 11.6434 6.43547 12.0485 6.43547C12.2422 6.43547 12.4888 6.28107 12.7354 6.00659C12.8587 5.83504 12.9996 5.66349 13.1406 5.49193C13.5457 5.02875 14.0036 4.61702 14.5321 4.29108C15.3247 3.77642 16.1878 3.50194 16.998 3.50194C18.3191 3.50194 19.4816 4.18815 20.3447 5.47478C21.1374 6.64133 21.3663 7.89365 21.0141 8.97442C20.6618 10.038 19.7635 10.913 18.46 11.4276C18.143 11.5477 17.8083 11.6506 17.456 11.7364C17.4032 11.7879 17.2623 11.9251 17.2446 12.1138C17.2446 12.2339 17.2799 12.354 17.4032 12.4741C17.4736 12.5084 17.5265 12.5598 17.5969 12.6113C18.1077 12.9716 18.5657 13.4176 18.9708 13.9151C19.7987 14.9616 20.151 16.0938 19.9924 17.1574C19.8515 18.1524 19.235 19.0788 18.231 19.8165C17.3327 20.4855 16.3463 20.8286 15.3775 20.8286C13.8275 20.8286 12.4712 19.9194 11.6962 18.3411C11.5553 18.0495 11.4144 17.7407 11.3087 17.4147C11.2206 17.2947 11.1326 17.2947 11.0973 17.2947C11.0093 17.2947 10.9036 17.3633 10.8507 17.3976C10.8155 17.5691 10.7803 17.7407 10.7274 17.9122C10.5689 18.5641 10.428 19.0788 10.2695 19.5591C10.0757 20.1767 9.82911 20.7085 9.54728 21.206C9.03647 22.1152 8.27907 22.8529 7.48643 23.2646C7.29268 23.3676 7.09892 23.419 6.90517 23.419Z" fill="#54E963"/>
<path d="M6.94012 1.46058C8.50778 1.46058 9.95213 2.38696 10.7272 4.051C10.9914 4.63428 11.1675 5.21755 11.2908 5.83513C11.2908 5.83513 11.5198 6.5728 12.0658 6.5728C12.2772 6.5728 12.5414 6.45272 12.8585 6.10962C12.9818 5.93807 13.1227 5.76651 13.2636 5.59496C13.6511 5.14893 14.1091 4.73721 14.6199 4.42842C15.3949 3.93092 16.2051 3.67359 16.9978 3.67359C18.1955 3.67359 19.3404 4.27402 20.2211 5.57781C21.7888 7.92806 21.0138 10.2955 18.4069 11.3076C18.0722 11.4449 17.7376 11.5478 17.4029 11.6164C17.4029 11.6164 16.804 12.0796 17.3148 12.5942C17.3853 12.6457 17.4557 12.68 17.5086 12.7315C18.0194 13.0917 18.4597 13.5206 18.8472 14.001C20.2916 15.8537 20.3444 18.0667 18.1427 19.6965C17.2268 20.3655 16.2932 20.6743 15.3949 20.6743C13.9329 20.6743 12.6295 19.8337 11.8368 18.2726C11.6783 17.9638 11.555 17.655 11.4493 17.3462C11.3436 17.1918 11.2203 17.1403 11.097 17.1403C10.8857 17.1403 10.7095 17.3119 10.7095 17.3119C10.6743 17.5006 10.6215 17.6893 10.5862 17.878C10.4629 18.427 10.322 18.9588 10.1283 19.5078C9.95213 20.0567 9.72315 20.6057 9.42371 21.1375C8.96574 21.9438 8.26118 22.7158 7.43332 23.1446C7.25718 23.2304 7.08104 23.2819 6.90489 23.2819C6.30602 23.2819 5.88328 22.7158 6.05942 22.0296C6.20033 21.4634 6.67591 21.0689 7.15149 20.7601C7.89128 20.2626 8.47255 19.7308 8.96574 18.9931C9.08904 18.8044 9.30041 18.6328 9.37087 18.4098C9.56462 17.8609 9.22995 17.7922 9.05381 17.7922C8.98336 17.7922 8.93051 17.8094 8.93051 17.8094C8.68392 18.1182 8.41971 18.3927 8.12027 18.6328C7.23956 19.3877 6.32363 19.7994 5.4077 19.7994C4.43892 19.7994 3.47015 19.3362 2.55421 18.3069C0.616664 16.0939 0.775191 13.5035 3.27639 12.1139C4.08664 11.6679 4.96734 11.3762 5.86566 11.1875C6.7816 10.7243 5.86566 10.1068 5.86566 10.1068C5.51338 9.90089 5.17871 9.69503 4.86166 9.45486C4.36846 9.07745 3.92811 8.63142 3.55822 8.15107C2.1667 6.26401 2.02579 3.91376 4.28039 2.3698C5.1611 1.75222 6.05942 1.46058 6.94012 1.46058ZM6.94012 1.16895C5.98896 1.16895 5.02019 1.49489 4.13948 2.09532C3.13548 2.78153 2.50137 3.69075 2.32523 4.72005C2.13148 5.86944 2.48376 7.12177 3.34685 8.28831C3.73436 8.80297 4.19232 9.26616 4.70313 9.66072C5.02019 9.90089 5.35485 10.1068 5.72475 10.3298C5.84805 10.4155 6.00658 10.5871 6.00658 10.69C6.00658 10.7415 5.91851 10.8273 5.79521 10.8959C4.73836 11.1361 3.9105 11.4449 3.15309 11.8566C1.95533 12.5256 1.19793 13.4863 1.00417 14.6185C0.77519 15.888 1.26838 17.2604 2.36046 18.4784C3.31162 19.5421 4.33324 20.0739 5.44292 20.0739C6.4117 20.0739 7.39809 19.6621 8.36686 18.8387C8.64869 18.5985 8.89529 18.3412 9.12427 18.0667C9.14188 18.0667 9.1595 18.0667 9.1595 18.0667C9.1595 18.0839 9.1595 18.1525 9.12427 18.2897C9.08904 18.3927 9.00097 18.4784 8.9129 18.5814C8.86006 18.65 8.7896 18.7186 8.73676 18.8044C8.26118 19.4906 7.73276 20.0053 7.01058 20.4856C6.535 20.7944 5.95373 21.2576 5.79521 21.9266C5.68952 22.3555 5.77759 22.7844 6.02419 23.1103C6.25317 23.3848 6.57023 23.5392 6.94012 23.5392C7.15149 23.5392 7.38047 23.4877 7.59184 23.3677C8.41971 22.9388 9.17711 22.2011 9.70553 21.2576C9.98736 20.7601 10.234 20.2111 10.4453 19.5764C10.6039 19.096 10.7448 18.5642 10.9033 17.9123C10.9385 17.7579 10.9737 17.6035 11.009 17.4491C11.0442 17.432 11.097 17.3977 11.1323 17.3977C11.1499 17.3977 11.1851 17.4148 11.2027 17.4491C11.3084 17.7751 11.4493 18.0839 11.5902 18.3755C12.4005 20.0053 13.792 20.9488 15.4125 20.9488C16.3989 20.9488 17.4205 20.5885 18.3541 19.9023C19.3933 19.1475 20.0274 18.1868 20.1683 17.1403C20.3268 16.0424 19.9569 14.8759 19.1115 13.7951C18.7063 13.2804 18.2484 12.8344 17.7199 12.457C17.6671 12.4227 17.5966 12.3712 17.5438 12.3369C17.4381 12.2168 17.4381 12.1311 17.4381 12.0967C17.4381 11.9938 17.5262 11.8909 17.579 11.8394C17.9137 11.7536 18.2484 11.6507 18.5478 11.5306C19.8865 10.9988 20.8376 10.1068 21.1899 8.99167C21.5598 7.87659 21.3132 6.58996 20.503 5.37195C19.6047 4.03385 18.4069 3.33049 17.033 3.33049C16.1875 3.33049 15.3068 3.60497 14.4966 4.13678C13.9681 4.47988 13.4926 4.8916 13.0874 5.37195C12.9465 5.52634 12.8056 5.71505 12.6823 5.8866C12.4709 6.12677 12.2596 6.24686 12.1187 6.24686C11.8721 6.24686 11.6959 5.86944 11.6431 5.7322C11.5022 5.046 11.3084 4.46273 11.0618 3.89661C10.1811 2.21541 8.6663 1.16895 6.94012 1.16895Z" fill="#028E11"/>
<path d="M10.8151 12.2856C10.7446 12.4572 10.6741 12.6287 10.5685 12.8003C10.4804 12.9204 10.3923 13.0405 10.269 13.1434C9.82867 13.5208 9.33548 13.5723 8.89512 13.0576C8.41954 12.5087 8.45477 11.8739 9.07127 11.5308C9.38832 11.3593 9.7406 11.2907 10.1105 11.222C9.88151 11.1191 9.67014 11.0162 9.47639 10.8618C9.35309 10.776 9.24741 10.6559 9.15934 10.5358C8.80705 10.0726 8.77183 9.48936 9.33548 9.09479C9.93436 8.68307 10.6389 8.88893 10.9207 9.52367C11.0793 9.84962 11.1145 10.2099 11.1321 10.5701C11.2554 10.33 11.3787 10.1069 11.5549 9.90108C11.6429 9.781 11.7662 9.69522 11.8895 9.60945C12.3651 9.30066 12.9111 9.35212 13.281 9.90108C13.6685 10.4844 13.4748 11.0676 12.8231 11.325C12.6293 11.3936 12.4356 11.445 12.2242 11.4622C12.3475 11.5308 12.4884 11.5994 12.5941 11.6852C12.7174 11.771 12.8231 11.8739 12.9288 11.994C13.281 12.4572 13.2986 13.0062 12.7526 13.4007C12.1713 13.8296 11.502 13.6752 11.185 13.0405C11.0793 12.8518 10.8503 12.5258 10.8151 12.2856Z" fill="#ABFFB1"/>
<path opacity="0.05" d="M19.6043 13.5378C20.5731 14.7902 20.9958 16.1283 20.8021 17.4492C20.6259 18.7015 19.8862 19.8166 18.6884 20.7087C17.6139 21.4978 16.4514 21.9095 15.2889 21.9095C13.6331 21.9095 12.1183 21.0518 11.1496 19.5593C11.0967 19.7137 11.0615 19.8681 11.0086 20.0053C10.7797 20.6744 10.5331 21.2748 10.216 21.8238C9.59952 22.8874 8.73643 23.7623 7.78527 24.2426C7.4506 24.4142 7.11593 24.5 6.78127 24.5C6.18239 24.5 5.63635 24.2426 5.28407 23.7966C4.87894 23.2991 4.75565 22.6472 4.91417 21.9953C5.00224 21.6007 5.196 21.2748 5.42498 21.0003C5.38975 21.0003 5.33691 21.0003 5.30168 21.0003C3.96301 21.0003 2.73002 20.3656 1.63795 19.1304C0.352122 17.7237 -0.193915 16.1283 0.0702967 14.6358C0.0702967 14.6358 4.19199 19.3191 10.8677 17.5693C16.0287 17.535 19.6043 13.5378 19.6043 13.5378Z" fill="#231F20"/>
<path d="M15.7826 19.4907C15.624 19.4907 15.4655 19.3706 15.4479 19.2162C15.4127 19.0275 15.536 18.856 15.7297 18.8216C16.1525 18.753 16.5752 18.5643 16.9627 18.2727C17.632 17.7752 17.9843 17.1747 17.9843 16.5057C17.9843 16.317 18.1429 16.1626 18.3366 16.1626C18.5304 16.1626 18.6889 16.317 18.6889 16.5057C18.6889 17.3978 18.2485 18.1869 17.4031 18.8045C16.9099 19.1647 16.3991 19.3878 15.8706 19.4907C15.8178 19.4907 15.8002 19.4907 15.7826 19.4907Z" fill="#97F7A1"/>
<path d="M19.2172 8.68307H19.1996C19.0058 8.66591 18.8649 8.51151 18.8649 8.32281C18.9001 7.84246 18.724 7.31066 18.3893 6.796C18.1075 6.38428 17.7904 6.07549 17.4205 5.88678C17.2444 5.80101 17.1916 5.59514 17.2796 5.42359C17.3677 5.25204 17.5791 5.20058 17.7552 5.28635C18.2308 5.52652 18.6359 5.90394 18.9882 6.43574C19.4109 7.07048 19.6223 7.73953 19.5871 8.37427C19.5519 8.54582 19.3933 8.68307 19.2172 8.68307Z" fill="#97F7A1"/>
<path d="M4.03373 6.43568C3.85759 6.43568 3.71667 6.3156 3.68145 6.14405C3.54053 5.08043 3.98089 4.1369 4.96727 3.46785C5.75991 2.91889 6.65823 2.71302 7.5037 2.88458C7.69746 2.91889 7.82076 3.10759 7.78553 3.27914C7.7503 3.46785 7.55655 3.58794 7.3804 3.55363C6.71107 3.43354 6.02412 3.58794 5.39001 4.03397C4.63261 4.56578 4.28032 5.26914 4.40362 6.07543C4.42124 6.26413 4.29794 6.43568 4.10418 6.45284C4.06896 6.43568 4.05134 6.43568 4.03373 6.43568Z" fill="#97F7A1"/>
<path d="M5.30198 18.5301C5.28437 18.5301 5.24914 18.5301 5.23153 18.5301C4.63265 18.41 4.069 18.0497 3.55819 17.4665C3.08261 16.9347 2.76555 16.3514 2.64226 15.7681C2.60703 15.5794 2.73033 15.4079 2.90647 15.3735C3.10022 15.3392 3.27636 15.4593 3.31159 15.6309C3.41727 16.0941 3.68149 16.5744 4.069 17.0204C4.49173 17.4836 4.91447 17.7753 5.37244 17.861C5.56619 17.8953 5.67188 18.0841 5.63665 18.2728C5.61904 18.4272 5.46051 18.5301 5.30198 18.5301Z" fill="#97F7A1"/>
</g>
<defs>
<clipPath id="clip0_1570_14954">
<rect width="22" height="24" fill="white" transform="translate(0 0.5)"/>
</clipPath>
</defs>
</svg>
