<svg width="23" height="25" viewBox="0 0 23 25" fill="none" xmlns="http://www.w3.org/2000/svg">
<g clip-path="url(#clip0_1329_7554)">
<path d="M22.803 9.35203C23.2434 8.01393 22.9616 6.50429 22.028 5.09757C21.0064 3.55361 19.5444 2.71301 17.9063 2.71301C16.9199 2.71301 15.8807 3.03895 14.9295 3.63938C14.3307 4.0168 13.8022 4.47998 13.3443 5.01179C13.2562 5.11472 13.1857 5.21765 13.0977 5.32058C12.9568 4.73731 12.7806 4.2055 12.534 3.708C11.6181 1.70086 9.83907 0.5 7.77822 0.5C6.66853 0.5 5.54123 0.860257 4.51962 1.56362C3.35709 2.38706 2.61729 3.45068 2.40593 4.68584C2.17694 6.02394 2.58207 7.49928 3.55084 8.82022C3.97358 9.4035 4.48439 9.91815 5.06565 10.347C5.17134 10.4328 5.27702 10.5014 5.38271 10.5872C4.71337 10.7931 4.11449 11.0504 3.56845 11.3592C2.17694 12.1312 1.27862 13.2977 1.04964 14.653C0.785429 16.1455 1.33147 17.7409 2.58207 19.1476C3.67414 20.3828 4.90713 21.0175 6.2458 21.0175C6.28102 21.0175 6.33387 21.0175 6.36909 21.0175C6.14011 21.292 5.96397 21.6179 5.85829 22.0125C5.69976 22.6644 5.82306 23.3334 6.22818 23.8138C6.59808 24.2598 7.14411 24.5171 7.72538 24.5171C8.06005 24.5171 8.41233 24.4314 8.72938 24.2598C9.69816 23.7623 10.5612 22.9046 11.1601 21.8409C11.4772 21.292 11.7414 20.6916 11.9528 20.0225C12.0056 19.8681 12.0408 19.7309 12.0937 19.5765C13.0624 21.0518 14.5773 21.9267 16.233 21.9267C17.3955 21.9267 18.5757 21.515 19.6325 20.7259C20.8303 19.8338 21.5701 18.7187 21.7462 17.4664C21.9399 16.1626 21.5172 14.8074 20.5484 13.555C20.2314 13.1605 19.8791 12.7831 19.4916 12.4571C19.5444 12.4399 19.6149 12.4056 19.6677 12.3885C21.2706 11.7537 22.3803 10.6901 22.803 9.35203Z" fill="#2EAF37"/>
<path d="M7.90157 23.4192C7.58451 23.4192 7.30269 23.282 7.10893 23.0418C6.87995 22.7673 6.80949 22.3728 6.91518 21.9954C7.0737 21.3606 7.61974 20.9317 8.07771 20.6401C8.8175 20.1598 9.36354 19.6108 9.85673 18.9074C9.90957 18.8388 9.96242 18.7702 10.0153 18.7016C10.1033 18.5815 10.209 18.4786 10.2442 18.3585C10.2971 18.1869 10.3147 18.0668 10.2619 17.9982C10.2266 17.9467 10.1209 17.9296 10.0681 17.9296C10.0505 17.9296 10.0505 17.9296 10.0329 17.9296C9.78627 18.2212 9.52206 18.4957 9.24024 18.7359C8.30669 19.5422 7.35553 19.9367 6.42198 19.9367C5.36514 19.9367 4.37875 19.4221 3.46282 18.3928C2.40597 17.1919 1.93039 15.871 2.14176 14.653C2.33551 13.555 3.05769 12.6287 4.22022 11.9939C4.96001 11.5822 5.78788 11.2906 6.84472 11.0504C7.03848 10.9475 7.14416 10.8274 7.16178 10.7244C7.17939 10.5186 6.91518 10.3127 6.80949 10.2441C6.4396 10.0382 6.12254 9.81523 5.80549 9.57505C5.29468 9.19764 4.85433 8.75161 4.48443 8.23695C3.65657 7.10472 3.30429 5.8867 3.49804 4.77162C3.63896 3.75947 4.22022 2.90171 5.20661 2.21551C6.05209 1.63224 7.00325 1.32344 7.91918 1.32344C9.59252 1.32344 11.0545 2.31844 11.8295 3.99964C12.0937 4.54861 12.2875 5.13188 12.4284 5.81808C12.4284 5.81808 12.6398 6.43567 13.0449 6.43567C13.2386 6.43567 13.4852 6.28127 13.7318 6.00679C13.8551 5.83524 13.996 5.66369 14.137 5.49214C14.5421 5.02895 15 4.61723 15.5285 4.29128C16.3211 3.77663 17.1842 3.50214 17.9944 3.50214C19.3155 3.50214 20.478 4.18835 21.3411 5.47498C22.1338 6.64153 22.3627 7.89385 22.0105 8.97462C21.6582 10.0382 20.7599 10.9132 19.4564 11.4278C19.1394 11.5479 18.8047 11.6508 18.4524 11.7366C18.3996 11.7881 18.2587 11.9253 18.241 12.114C18.241 12.2341 18.2763 12.3542 18.3996 12.4743C18.47 12.5086 18.5229 12.56 18.5933 12.6115C19.1041 12.9718 19.5621 13.4178 19.9672 13.9153C20.7951 14.9618 21.1474 16.094 20.9888 17.1576C20.8479 18.1526 20.2314 19.079 19.2274 19.8167C18.3291 20.4857 17.3427 20.8288 16.3739 20.8288C14.8239 20.8288 13.4676 19.9196 12.6926 18.3413C12.5517 18.0497 12.4108 17.7409 12.3051 17.4149C12.217 17.2949 12.1289 17.2949 12.0937 17.2949C12.0057 17.2949 11.9 17.3635 11.8471 17.3978C11.8119 17.5693 11.7767 17.7409 11.7238 17.9124C11.5653 18.5643 11.4244 19.079 11.2659 19.5593C11.0721 20.1769 10.8255 20.7087 10.5437 21.2062C10.0329 22.1154 9.27547 22.8531 8.48283 23.2648C8.28908 23.3678 8.09532 23.4192 7.90157 23.4192Z" fill="#54E963"/>
<path d="M7.9367 1.46069C9.50436 1.46069 10.9487 2.38706 11.7237 4.05111C11.9879 4.63438 12.1641 5.21765 12.2874 5.83524C12.2874 5.83524 12.5164 6.57291 13.0624 6.57291C13.2738 6.57291 13.538 6.45282 13.855 6.10972C13.9783 5.93817 14.1193 5.76662 14.2602 5.59507C14.6477 5.14903 15.1056 4.73731 15.6164 4.42852C16.3915 3.93102 17.2017 3.67369 17.9943 3.67369C19.1921 3.67369 20.337 4.27412 21.2177 5.57791C22.7854 7.92816 22.0104 10.2956 19.4035 11.3077C19.0688 11.445 18.7341 11.5479 18.3995 11.6165C18.3995 11.6165 17.8006 12.0797 18.3114 12.5943C18.3819 12.6458 18.4523 12.6801 18.5052 12.7316C19.016 13.0918 19.4563 13.5207 19.8438 14.0011C21.2882 15.8538 21.341 18.0668 19.1393 19.6966C18.2233 20.3656 17.2898 20.6744 16.3915 20.6744C14.9295 20.6744 13.6261 19.8338 12.8334 18.2727C12.6749 17.9639 12.5516 17.6551 12.4459 17.3463C12.3402 17.1919 12.2169 17.1405 12.0936 17.1405C11.8823 17.1405 11.7061 17.312 11.7061 17.312C11.6709 17.5007 11.618 17.6894 11.5828 17.8781C11.4595 18.4271 11.3186 18.9589 11.1249 19.5079C10.9487 20.0568 10.7197 20.6058 10.4203 21.1376C9.96233 21.9439 9.25776 22.7159 8.4299 23.1447C8.25376 23.2305 8.07762 23.282 7.90148 23.282C7.3026 23.282 6.87986 22.7159 7.056 22.0297C7.19691 21.4635 7.67249 21.069 8.14807 20.7602C8.88787 20.2627 9.46913 19.7309 9.96233 18.9932C10.0856 18.8045 10.297 18.6329 10.3674 18.4099C10.5612 17.861 10.2265 17.7923 10.0504 17.7923C9.97994 17.7923 9.9271 17.8095 9.9271 17.8095C9.6805 18.1183 9.41629 18.3928 9.11685 18.6329C8.23614 19.3878 7.32021 19.7995 6.40428 19.7995C5.4355 19.7995 4.46673 19.3363 3.5508 18.307C1.61325 16.094 1.77177 13.5036 4.27297 12.114C5.08322 11.668 5.96393 11.3763 6.86224 11.1876C7.77818 10.7244 6.86224 10.1069 6.86224 10.1069C6.50996 9.901 6.1753 9.69514 5.85824 9.45496C5.36505 9.07755 4.92469 8.63152 4.5548 8.15118C3.16329 6.26411 3.02237 3.91387 5.27698 2.36991C6.15768 1.75232 7.056 1.46069 7.9367 1.46069ZM7.9367 1.16905C6.98554 1.16905 6.01677 1.495 5.13606 2.09542C4.13206 2.78163 3.49795 3.69085 3.32181 4.72016C3.12806 5.86955 3.48034 7.12187 4.34343 8.28842C4.73094 8.80307 5.18891 9.26626 5.69971 9.66083C6.01677 9.901 6.35144 10.1069 6.72133 10.3299C6.84463 10.4157 7.00316 10.5872 7.00316 10.6901C7.00316 10.7416 6.91509 10.8274 6.79179 10.896C5.73494 11.1362 4.90708 11.445 4.14967 11.8567C2.95192 12.5257 2.19451 13.4864 2.00076 14.6187C1.77177 15.8881 2.26497 17.2605 3.35704 18.4785C4.3082 19.5422 5.32982 20.074 6.43951 20.074C7.40828 20.074 8.39467 19.6623 9.36345 18.8388C9.64527 18.5986 9.89187 18.3413 10.1209 18.0668C10.1385 18.0668 10.1561 18.0668 10.1561 18.0668C10.1561 18.084 10.1561 18.1526 10.1209 18.2898C10.0856 18.3928 9.99755 18.4785 9.90948 18.5815C9.85664 18.6501 9.78618 18.7187 9.73334 18.8045C9.25776 19.4907 8.72934 20.0054 8.00716 20.4857C7.53158 20.7945 6.95032 21.2577 6.79179 21.9267C6.6861 22.3556 6.77417 22.7845 7.02077 23.1104C7.24975 23.3849 7.56681 23.5393 7.9367 23.5393C8.14807 23.5393 8.37706 23.4878 8.58843 23.3678C9.41629 22.9389 10.1737 22.2012 10.7021 21.2577C10.9839 20.7602 11.2305 20.2112 11.4419 19.5765C11.6004 19.0961 11.7413 18.5643 11.8999 17.9124C11.9351 17.758 11.9703 17.6036 12.0056 17.4492C12.0408 17.4321 12.0936 17.3978 12.1289 17.3978C12.1465 17.3978 12.1817 17.4149 12.1993 17.4492C12.305 17.7752 12.4459 18.084 12.5868 18.3756C13.3971 20.0054 14.7886 20.9489 16.4091 20.9489C17.3955 20.9489 18.4171 20.5886 19.3506 19.9024C20.3899 19.1476 21.024 18.1869 21.1649 17.1405C21.3234 16.0425 20.9535 14.876 20.108 13.7952C19.7029 13.2806 19.2449 12.8345 18.7165 12.4571C18.6637 12.4228 18.5932 12.3713 18.5404 12.337C18.4347 12.2169 18.4347 12.1312 18.4347 12.0969C18.4347 11.9939 18.5228 11.891 18.5756 11.8395C18.9103 11.7537 19.245 11.6508 19.5444 11.5307C20.8831 10.9989 21.8342 10.1069 22.1865 8.99178C22.5564 7.87669 22.3098 6.59006 21.4996 5.37205C20.6012 4.03395 19.4035 3.33059 18.0296 3.33059C17.1841 3.33059 16.3034 3.60507 15.4931 4.13688C14.9647 4.47998 14.4891 4.89171 14.084 5.37205C13.9431 5.52645 13.8022 5.71515 13.6789 5.8867C13.4675 6.12687 13.2562 6.24696 13.1152 6.24696C12.8687 6.24696 12.6925 5.86955 12.6397 5.73231C12.4988 5.0461 12.305 4.46283 12.0584 3.89671C11.1777 2.21551 9.66289 1.16905 7.9367 1.16905Z" fill="#028E11"/>
<path d="M11.8119 12.2856C11.7414 12.4571 11.671 12.6287 11.5653 12.8002C11.4772 12.9203 11.3891 13.0404 11.2658 13.1433C10.8255 13.5207 10.3323 13.5722 9.89195 13.0575C9.41637 12.5086 9.4516 11.8738 10.0681 11.5307C10.3851 11.3592 10.7374 11.2906 11.1073 11.2219C10.8783 11.119 10.667 11.0161 10.4732 10.8617C10.3499 10.7759 10.2442 10.6558 10.1562 10.5357C9.80388 10.0726 9.76865 9.48928 10.3323 9.09471C10.9312 8.68299 11.6357 8.88885 11.9176 9.52359C12.0761 9.84954 12.1113 10.2098 12.1289 10.5701C12.2522 10.3299 12.3755 10.1069 12.5517 9.901C12.6397 9.78092 12.763 9.69514 12.8863 9.60936C13.3619 9.30057 13.908 9.35204 14.2779 9.901C14.6654 10.4843 14.4716 11.0675 13.8199 11.3249C13.6261 11.3935 13.4324 11.445 13.221 11.4621C13.3443 11.5307 13.4852 11.5994 13.5909 11.6851C13.7142 11.7709 13.8199 11.8738 13.9256 11.9939C14.2779 12.4571 14.2955 13.0061 13.7494 13.4006C13.1682 13.8295 12.4988 13.6751 12.1818 13.0404C12.0761 12.8517 11.8471 12.5257 11.8119 12.2856Z" fill="#ABFFB1"/>
<path opacity="0.05" d="M20.6013 13.5379C21.5701 14.7902 21.9928 16.1283 21.7991 17.4492C21.623 18.7016 20.8832 19.8167 19.6854 20.7087C18.6109 21.4979 17.4484 21.9096 16.2859 21.9096C14.6302 21.9096 13.1153 21.0518 12.1466 19.5593C12.0937 19.7137 12.0585 19.8681 12.0057 20.0054C11.7767 20.6744 11.5301 21.2748 11.213 21.8238C10.5965 22.8874 9.73344 23.7623 8.78228 24.2427C8.44761 24.4142 8.11294 24.5 7.77828 24.5C7.1794 24.5 6.63336 24.2427 6.28108 23.7966C5.87595 23.2991 5.75265 22.6472 5.91118 21.9954C5.99925 21.6008 6.19301 21.2748 6.42199 21.0004C6.38676 21.0004 6.33392 21.0004 6.29869 21.0004C4.96002 21.0004 3.72703 20.3656 2.63496 19.1305C1.34913 17.7237 0.803095 16.1283 1.06731 14.6358C1.06731 14.6358 5.189 19.3192 11.8647 17.5693C17.0257 17.535 20.6013 13.5379 20.6013 13.5379Z" fill="#231F20"/>
<path d="M16.7791 19.4907C16.6206 19.4907 16.462 19.3706 16.4444 19.2162C16.4092 19.0275 16.5325 18.856 16.7262 18.8217C17.149 18.753 17.5717 18.5643 17.9592 18.2727C18.6286 17.7752 18.9808 17.1748 18.9808 16.5057C18.9808 16.317 19.1394 16.1626 19.3331 16.1626C19.5269 16.1626 19.6854 16.317 19.6854 16.5057C19.6854 17.3978 19.2451 18.1869 18.3996 18.8045C17.9064 19.1648 17.3956 19.3878 16.8672 19.4907C16.8143 19.4907 16.7967 19.4907 16.7791 19.4907Z" fill="#97F7A1"/>
<path d="M20.2138 8.68299H20.1962C20.0025 8.66583 19.8615 8.51144 19.8615 8.32273C19.8968 7.84239 19.7206 7.31058 19.386 6.79593C19.1041 6.3842 18.7871 6.07541 18.4172 5.8867C18.241 5.80093 18.1882 5.59507 18.2763 5.42352C18.3643 5.25197 18.5757 5.2005 18.7519 5.28628C19.2274 5.52645 19.6326 5.90386 19.9848 6.43567C20.4076 7.07041 20.619 7.73946 20.5837 8.3742C20.5485 8.54575 20.39 8.68299 20.2138 8.68299Z" fill="#97F7A1"/>
<path d="M5.03037 6.43567C4.85423 6.43567 4.71332 6.31558 4.67809 6.14403C4.53718 5.08042 4.97753 4.13688 5.96392 3.46783C6.75655 2.91887 7.65487 2.71301 8.50035 2.88456C8.6941 2.91887 8.8174 3.10758 8.78217 3.27913C8.74694 3.46783 8.55319 3.58792 8.37705 3.55361C7.70771 3.43352 7.02076 3.58792 6.38666 4.03395C5.62925 4.56576 5.27697 5.26912 5.40027 6.07541C5.41788 6.26412 5.29458 6.43567 5.10083 6.45282C5.0656 6.43567 5.04798 6.43567 5.03037 6.43567Z" fill="#97F7A1"/>
<path d="M6.29856 18.53C6.28095 18.53 6.24572 18.53 6.22811 18.53C5.62923 18.4099 5.06558 18.0497 4.55477 17.4664C4.07919 16.9346 3.76214 16.3513 3.63884 15.7681C3.60361 15.5793 3.72691 15.4078 3.90305 15.3735C4.0968 15.3392 4.27294 15.4593 4.30817 15.6308C4.41386 16.094 4.67807 16.5743 5.06558 17.0204C5.48832 17.4836 5.91105 17.7752 6.36902 17.861C6.56277 17.8953 6.66846 18.084 6.63323 18.2727C6.61562 18.4271 6.45709 18.53 6.29856 18.53Z" fill="#97F7A1"/>
</g>
<defs>
<clipPath id="clip0_1329_7554">
<rect width="22" height="24" fill="white" transform="translate(0.996704 0.5)"/>
</clipPath>
</defs>
</svg>
