<svg width="30" height="30" viewBox="0 0 30 30" fill="none" xmlns="http://www.w3.org/2000/svg">
<path d="M27 15C27 21.6274 21.6274 27 15 27C8.37258 27 3 21.6274 3 15C3 8.37258 8.37258 3 15 3C21.6274 3 27 8.37258 27 15Z" fill="#2F93F0"/>
<path fill-rule="evenodd" clip-rule="evenodd" d="M30 15C30 23.2843 23.2843 30 15 30C6.71573 30 0 23.2843 0 15C0 6.71573 6.71573 0 15 0C23.2843 0 30 6.71573 30 15ZM15 27.2727C21.778 27.2727 27.2727 21.778 27.2727 15C27.2727 8.22196 21.778 2.72727 15 2.72727C8.22196 2.72727 2.72727 8.22196 2.72727 15C2.72727 21.778 8.22196 27.2727 15 27.2727Z" fill="#BDDBFE"/>
<path d="M26 14.5C26 20.8513 20.8513 26 14.5 26C8.14873 26 3 20.8513 3 14.5C3 8.14873 8.14873 3 14.5 3C20.8513 3 26 8.14873 26 14.5Z" fill="#4FA9FC"/>
<path d="M3.30526 12.6571C4.86298 5.86945 9.42995 2.4756 16.212 3.06582C23.1104 3.50851 21.04 8.85278 19.2537 8.03105C17.4675 7.20932 12.1092 12.2767 9.42986 17.344C6.64901 22.6034 1.7265 19.5365 3.30526 12.6571Z" fill="#75B4FE"/>
<path d="M15.2459 16.5178C15.6105 16.6084 15.8757 16.7519 16.0414 16.9482C16.2072 17.1294 16.2901 17.3182 16.2901 17.5146C16.2901 17.7864 16.1492 18.0356 15.8674 18.2621C15.6022 18.4736 15.221 18.5491 14.7238 18.4887C14.0276 18.3527 13.4807 18.0734 13.0829 17.6505C12.6851 17.2125 12.4862 16.7292 12.4862 16.2006C12.4862 15.7174 12.6934 15.2039 13.1077 14.6602C13.2901 14.4488 13.5138 14.2449 13.779 14.0485C14.0608 13.8371 14.3425 13.6257 14.6243 13.4142C14.8564 13.2481 15.0884 13.082 15.3204 12.9159C15.5525 12.7346 15.7597 12.5534 15.942 12.3722C16.1243 12.1909 16.2735 12.0097 16.3895 11.8285C16.5055 11.6321 16.5635 11.4358 16.5635 11.2395C16.5635 11.1338 16.5304 11.0054 16.4641 10.8544C16.3978 10.7033 16.3149 10.5599 16.2155 10.4239C16.116 10.288 16 10.1748 15.8674 10.0841C15.7514 9.99353 15.6354 9.94822 15.5193 9.94822C14.8729 9.97842 14.268 10.1748 13.7044 10.5372C13.1575 10.8997 12.6685 11.3225 12.2376 11.8058C12.0884 11.972 11.9227 12.0852 11.7403 12.1456C11.558 12.206 11.3757 12.2362 11.1934 12.2362C10.8619 12.2362 10.5801 12.1456 10.3481 11.9644C10.116 11.7832 10 11.5566 10 11.2848C10 11.0885 10.058 10.9148 10.174 10.7638C10.489 10.4013 10.8536 10.0539 11.268 9.72168C11.6823 9.37433 12.1215 9.07983 12.5856 8.83819C13.0497 8.58144 13.5221 8.37756 14.0028 8.22654C14.5 8.07551 14.989 8 15.4696 8C16.1657 8 16.7956 8.16613 17.3591 8.49838C17.9392 8.81553 18.4033 9.37432 18.7514 10.1748C18.9171 10.5674 19 10.9148 19 11.2168C19 11.7907 18.8094 12.342 18.4282 12.8706C18.047 13.384 17.5829 13.8447 17.0359 14.2524C16.7376 14.4337 16.4475 14.6224 16.1657 14.8188C15.884 15.0151 15.6436 15.2114 15.4448 15.4078C15.2459 15.589 15.0967 15.7702 14.9972 15.9515C14.9144 16.1327 14.9144 16.2988 14.9972 16.4498C14.9807 16.48 15.0055 16.5027 15.0718 16.5178C15.1547 16.5178 15.2127 16.5178 15.2459 16.5178ZM12.9088 20.6634C12.9088 20.2859 13.058 19.9763 13.3564 19.7346C13.6713 19.4779 14.0442 19.3495 14.4751 19.3495C14.9227 19.3495 15.2956 19.4779 15.5939 19.7346C15.9088 19.9763 16.0663 20.2859 16.0663 20.6634C16.0663 21.0259 15.9088 21.343 15.5939 21.6149C15.2956 21.8716 14.9227 22 14.4751 22C14.0442 22 13.6713 21.8716 13.3564 21.6149C13.058 21.343 12.9088 21.0259 12.9088 20.6634Z" fill="white"/>
</svg>
