<svg width="24" height="21" viewBox="0 0 24 21" fill="none" xmlns="http://www.w3.org/2000/svg">
<g clip-path="url(#clip0_1570_14982)">
<path d="M12.0077 3.97562C12.0077 3.97562 14.6011 0.242672 18.6036 1.14719C23.8803 2.32451 24.7947 9.60376 21.7067 12.8773C19.3232 15.4042 15.6655 18.0747 13.5818 19.4961C12.6224 20.1565 11.3631 20.1565 10.4037 19.4961C8.32004 18.0603 4.66233 15.4042 2.27882 12.8773C-0.79426 9.60376 0.120169 2.32451 5.39687 1.14719C9.41436 0.242672 12.0077 3.97562 12.0077 3.97562Z" fill="#FF6A69"/>
<path d="M17.3602 1.86414C17.705 1.86414 18.0498 1.90721 18.3946 1.979C20.853 2.52458 21.8424 4.50592 22.2022 5.64016C22.9817 7.99479 22.502 10.7371 21.0329 12.2877C18.6944 14.7715 15.0366 17.4277 13.0579 18.7916C12.7431 19.007 12.3833 19.1219 11.9936 19.1219C11.6038 19.1219 11.244 19.007 10.9292 18.7916C8.96544 17.442 5.30773 14.7859 2.96919 12.302C1.50011 10.7514 1.02041 8.00915 1.79992 5.65452C2.17469 4.52027 3.14908 2.53894 5.60754 1.979C5.95233 1.90721 6.29711 1.86414 6.6419 1.86414C9.34021 1.86414 11.1541 4.31927 11.244 4.44849C11.4089 4.69256 11.6937 4.83614 11.9936 4.83614C12.2934 4.83614 12.5782 4.69256 12.7431 4.44849C12.878 4.2762 14.6919 1.86414 17.3602 1.86414ZM17.3602 1.00269C14.0773 1.00269 12.0235 3.94597 12.0085 3.97469C11.9786 3.94597 9.92484 1.00269 6.6419 1.00269C6.25214 1.00269 5.8324 1.04576 5.39767 1.14626C0.120972 2.32358 -0.793456 9.60283 2.29461 12.8763C4.67812 15.4033 8.33584 18.0738 10.4195 19.4951C10.8992 19.8254 11.4539 19.9833 12.0085 19.9833C12.5632 19.9833 13.1178 19.8254 13.5975 19.4951C15.6812 18.0594 19.339 15.4033 21.7225 12.8763C24.8105 9.60283 23.8961 2.32358 18.6194 1.14626C18.1697 1.04576 17.75 1.00269 17.3602 1.00269Z" fill="#CF2E1B"/>
<path d="M23.6546 5.55455C23.6246 5.45404 23.5946 5.35354 23.5646 5.25304C22.7851 2.85534 21.0162 1.17551 18.7226 0.672995C15.3498 -0.0879532 12.9513 2.10875 12.0068 3.1712C11.0624 2.09439 8.64894 -0.102311 5.27605 0.658637C2.98248 1.17551 1.22858 2.84098 0.434074 5.23868C-0.495345 8.08147 0.0892892 11.2832 1.90316 13.2071C2.71265 14.0685 3.68704 14.9587 4.67642 15.7914C6.65519 17.4569 8.76886 18.9788 10.103 19.8977C10.6727 20.2853 11.3323 20.4864 11.9918 20.4864C12.6514 20.4864 13.311 20.2853 13.8807 19.8977C15.9044 18.505 19.6521 15.7914 22.0805 13.2071C23.8344 11.355 24.4491 8.31119 23.6546 5.55455ZM10.7176 19.0937C9.62333 18.3327 8.00434 17.1841 6.38535 15.8776C5.06618 14.8295 3.747 13.6665 2.68267 12.5467C1.13863 10.8955 0.628952 8.02404 1.43845 5.54019C1.8282 4.33416 2.89254 2.22361 5.53089 1.63495C5.92064 1.5488 6.29541 1.50573 6.65519 1.50573C9.53339 1.50573 11.3922 4.00394 11.5571 4.23366C11.6021 4.29109 11.6471 4.34852 11.707 4.39159C11.797 4.44902 11.9019 4.47773 11.9918 4.47773C12.0968 4.47773 12.1867 4.44902 12.2767 4.39159C12.3366 4.34852 12.3966 4.29109 12.4266 4.23366C12.5765 4.01829 14.96 0.830927 18.4528 1.62059C21.0912 2.20925 22.1405 4.3198 22.5453 5.52583C22.7101 6.02834 22.8151 6.54521 22.875 7.06208C23.0999 9.11521 22.5303 11.2114 21.301 12.5323C18.9325 15.0449 15.2448 17.7154 13.2661 19.0793C12.5165 19.6249 11.4822 19.6249 10.7176 19.0937Z" fill="#F2473A"/>
<path d="M21.1968 8.28193C20.9119 8.28193 20.6721 8.05221 20.6721 7.77942C20.6721 6.76003 19.7427 3.80239 16.9094 3.80239C16.6246 3.80239 16.3848 3.57267 16.3848 3.29988C16.3848 3.02708 16.6246 2.79736 16.9094 2.79736C20.2673 2.79736 21.7214 6.08523 21.7214 7.77942C21.7214 8.06657 21.4816 8.28193 21.1968 8.28193Z" fill="#F5B2C7"/>
<path opacity="0.05" d="M22.0965 13.2064C19.668 15.7908 15.9054 18.5187 13.8966 19.897C13.327 20.2847 12.6674 20.4857 12.0078 20.4857C11.3482 20.4857 10.6886 20.2847 10.119 19.897C8.76983 18.9781 6.67115 17.4562 4.69238 15.7908C4.94722 15.8195 5.23205 15.8338 5.56184 15.8482C5.81668 15.8625 6.1015 15.8769 6.40131 15.8769C10.6137 15.92 18.5437 14.8862 22.906 7.0614C23.0409 6.81732 23.1758 6.55889 23.3107 6.28609C23.4307 6.04202 23.5506 5.78358 23.6705 5.52515C24.45 8.3105 23.8354 11.3543 22.0965 13.2064Z" fill="#231F20"/>
<path d="M7.18086 14.1254C7.1059 14.1254 7.01596 14.111 6.94101 14.068C2.21896 11.7133 2.89354 7.67888 2.90853 7.63581C2.9535 7.36301 3.22333 7.17637 3.50815 7.2338C3.79297 7.27687 3.98785 7.5353 3.92789 7.8081C3.89791 7.95167 3.40322 11.1678 7.42071 13.1634C7.67555 13.2927 7.78048 13.5942 7.64557 13.8382C7.55562 14.0249 7.37573 14.1254 7.18086 14.1254Z" fill="#F5B2C7"/>
</g>
<defs>
<clipPath id="clip0_1570_14982">
<rect width="24" height="20" fill="white" transform="translate(0 0.5)"/>
</clipPath>
</defs>
</svg>
