<svg width="24" height="25" viewBox="0 0 24 25" fill="none" xmlns="http://www.w3.org/2000/svg">
<g clip-path="url(#clip0_1329_7542)">
<path d="M23.796 20.6901C23.3692 21.897 22.5786 22.6556 21.4877 23.0694C18.4364 24.2073 15.3059 24.6038 12.0964 24.4659C8.23873 24.2935 4.63399 23.1901 1.2664 21.1383C0.428453 20.6211 -0.0300446 19.8625 0.0173862 18.8107C0.0331965 18.4487 0.128058 18.0866 0.191299 17.7245C0.301971 17.0694 0.25454 16.397 0.317781 15.7418C0.460074 14.397 0.839521 13.1211 1.2664 11.8625C2.10434 9.36247 3.13201 6.96592 4.61818 4.82799C5.29802 3.84523 6.02529 2.89695 6.86324 2.05213C8.04901 0.879713 9.44031 0.362472 11.0371 0.517644C11.4008 0.552127 11.7644 0.672817 12.0806 0.862472C12.713 1.22454 13.3771 1.7073 13.8672 2.27626C14.1676 2.62109 14.3415 3.27626 14.2466 4.13833C14.2308 4.27626 14.1992 4.34523 14.2783 4.44868C14.7051 5.08661 14.6893 5.9142 14.1834 6.48316C13.5036 7.27626 12.7921 8.01764 12.0806 8.77626C11.7802 9.10385 11.4008 9.2073 10.9897 9.2073C10.2466 9.2073 9.48774 9.2073 8.74466 9.2073C8.58656 9.2073 8.55494 9.24178 8.55494 9.4142C8.60237 10.3797 8.77628 11.3452 8.87114 12.3107C8.91857 12.8107 8.95019 13.328 8.99762 13.8625C9.31383 13.6039 9.61422 13.3797 9.94624 13.1901C11.4324 12.3625 12.9502 12.259 14.5154 12.9314C14.7051 13.0176 14.7842 12.9832 14.8949 12.7935C16.1913 10.4487 18.1043 9.24178 20.6182 9.22454C22.2941 9.2073 23.7486 10.6728 23.97 12.4832C23.97 12.5176 23.97 12.5694 24.0174 12.5866C24.0174 14.9487 24.0011 17.3411 24.0011 19.7031C24.0011 20.1055 23.8793 20.4541 23.796 20.6901Z" fill="#EAAF83"/>
<path d="M15.0986 14.5C13.1223 12.9483 10.3397 13.3965 8.85357 15.5862C8.14211 15.3276 7.98401 13.9483 7.98401 13.9483C7.9682 12.8103 7.77847 11.6724 7.65199 10.5517C7.65199 10.5517 7.62037 8.13793 8.7429 8.13793C9.5176 8.13793 10.2607 8.13793 11.0038 8.13793C11.1777 8.13793 11.32 8.08621 11.4465 7.94827C12.0947 7.24138 12.7587 6.53448 13.4069 5.81034C13.5334 5.67241 13.5967 5.5 13.5492 5.2931C13.5334 5.24138 13.5334 5.15517 13.486 5.13793C13.0749 4.81034 13.5018 3.15517 13.1382 2.87931C12.7745 2.60345 12.4109 2.34483 12.0472 2.08621C11.6678 1.81035 11.2567 1.62069 10.7824 1.60345C9.45436 1.53448 8.33183 2 7.39903 3C6.45041 4.01724 5.61246 5.13793 4.85357 6.32759C3.54132 8.43103 2.65594 10.7414 1.91286 13.1034C1.54922 14.2586 1.24883 15.4483 1.24883 16.6897C1.24883 17.3103 1.16978 17.9138 1.04329 18.5172C0.885191 19.2759 1.09072 19.7931 1.72314 20.1724C3.17768 21.069 4.69547 21.7759 6.29231 22.3103C9.37531 23.3448 12.5374 23.569 15.7469 23.2931C17.5967 23.1207 19.3832 22.6896 21.1382 22.0517C22.3081 21.6207 22.988 20.6896 22.988 19.3621C23.0038 17.2586 23.0038 15.1552 22.988 13.0517C22.9721 11.5172 21.9129 10.3103 20.569 10.3276C18.4188 10.3448 16.7903 11.3966 15.6994 13.4138L15.0986 14.5Z" fill="#FFCCA6"/>
<path d="M10.5137 1.58621C10.5927 1.58621 10.6718 1.58621 10.7666 1.58621C11.2251 1.60345 11.652 1.79311 12.0315 2.06897C12.3951 2.32759 12.7587 2.58621 13.1224 2.86207C13.486 3.13793 13.0591 4.77586 13.4702 5.12069C13.5176 5.13793 13.5334 5.22414 13.5334 5.27586C13.5809 5.48276 13.5176 5.65517 13.3912 5.79311C12.7429 6.5 12.0947 7.22414 11.4307 7.93104C11.3042 8.06897 11.1619 8.12069 10.988 8.12069C10.6402 8.12069 10.2923 8.12069 9.94451 8.12069C9.54926 8.12069 9.13819 8.12069 8.72712 8.12069C7.60459 8.12069 7.63621 10.5345 7.63621 10.5345C7.76269 11.6724 7.95242 12.7931 7.96823 13.931C7.96823 13.931 8.12633 15.3103 8.8536 15.569C9.75479 14.2586 11.0987 13.569 12.4742 13.569C13.3912 13.569 14.2923 13.8621 15.0829 14.4828L15.6678 13.3793C16.7746 11.3621 18.3872 10.3103 20.5374 10.2931H20.5532C21.8971 10.2931 22.9406 11.4828 22.9564 13.0172C22.9722 15.1207 22.9722 17.2241 22.9564 19.3276C22.9406 20.6552 22.2765 21.5862 21.1066 22.0172C19.3516 22.6552 17.5651 23.1035 15.7153 23.2586C14.8773 23.3276 14.0552 23.3793 13.2331 23.3793C10.8773 23.3793 8.55321 23.0517 6.26072 22.2931C4.66388 21.7586 3.14609 21.0517 1.69155 20.1552C1.05914 19.7759 0.853603 19.2586 1.01171 18.5C1.13819 17.8966 1.21724 17.2931 1.21724 16.6724C1.21724 15.431 1.50182 14.2414 1.88127 13.0862C2.65597 10.7414 3.54135 8.43104 4.8536 6.34483C5.59669 5.13793 6.45044 4.01724 7.39906 3.01724C8.26862 2.06897 9.3121 1.58621 10.5137 1.58621ZM10.5137 1.24138V1.58621V1.24138C9.23305 1.24138 8.11052 1.74138 7.1619 2.75862C6.24491 3.72414 5.37534 4.86207 4.58483 6.13793C3.14609 8.44828 2.2291 11.0172 1.59669 13C1.26467 14.0517 0.916844 15.3276 0.916844 16.6897C0.916844 17.2414 0.853603 17.8103 0.727121 18.431C0.537397 19.3448 0.806172 20.0172 1.56507 20.4828C3.0038 21.3621 4.56902 22.1035 6.19748 22.6552C8.41092 23.3966 10.7192 23.7586 13.2647 23.7586C14.071 23.7586 14.9248 23.7241 15.7785 23.6379C17.5651 23.4828 19.3516 23.069 21.2489 22.3793C22.5769 21.8966 23.32 20.8276 23.32 19.3621C23.3358 17.0345 23.3358 14.9655 23.32 13.0345C23.3042 11.3103 22.1026 9.96552 20.6006 9.96552H20.5848C18.3398 9.98276 16.6006 11.069 15.4307 13.2241L15.0196 14C14.2607 13.5 13.407 13.2241 12.5058 13.2241C11.0512 13.2241 9.72317 13.9138 8.79036 15.1207C8.48997 14.8276 8.34767 14.1724 8.31605 13.9138C8.30024 13.0517 8.18957 12.1897 8.0789 11.3621C8.04728 11.0862 7.99985 10.7931 7.96823 10.5172C7.96823 10.1207 8.04728 9.03448 8.42673 8.62069C8.52159 8.51724 8.61645 8.46552 8.74293 8.46552H9.35953H9.96032C10.3081 8.46552 10.656 8.46552 11.0038 8.46552C11.2726 8.46552 11.4939 8.36207 11.6836 8.17242L12.237 7.56897C12.7113 7.05173 13.1698 6.55173 13.6441 6.03448C13.8655 5.79311 13.9445 5.5 13.8655 5.18966V5.17242C13.8497 5.10345 13.818 4.93104 13.6757 4.82759C13.5967 4.7069 13.6125 4.2069 13.6125 3.9138C13.6283 3.31035 13.6283 2.79311 13.3121 2.56897C12.9643 2.31035 12.6165 2.05173 12.2212 1.77586C11.7469 1.43104 11.2726 1.25862 10.7983 1.22414C10.7034 1.24138 10.6085 1.24138 10.5137 1.24138Z" fill="#C66E3E"/>
<path d="M10.0237 16.9483C9.86558 16.9483 9.70747 16.8793 9.58099 16.7586C9.32803 16.4828 9.31222 16.0517 9.56518 15.7586C10.3083 14.9138 12.2529 13.6552 14.2925 14.9483C14.6087 15.1379 14.7035 15.569 14.5296 15.9138C14.3557 16.2586 13.9604 16.3621 13.6442 16.1724C11.9683 15.1207 10.5612 16.6724 10.498 16.7414C10.3715 16.8793 10.1976 16.9483 10.0237 16.9483Z" fill="#FFF0E8"/>
<path d="M6.67179 14.3793C6.64017 14.3793 6.60855 14.3793 6.56112 14.3621C6.29234 14.2931 6.13424 14.0172 6.18167 13.7414C6.40301 12.6034 6.02357 11.0345 6.00776 11.0172C5.94452 10.7414 6.08681 10.4483 6.33977 10.3621C6.59274 10.2759 6.86151 10.4483 6.94056 10.7241C6.95637 10.7931 7.39906 12.569 7.13029 13.9655C7.08286 14.2069 6.89313 14.3793 6.67179 14.3793Z" fill="#FFF0E8"/>
<path d="M17.8181 13.7069C17.7549 13.7069 17.6916 13.6897 17.6284 13.6552C17.3912 13.5345 17.2647 13.2241 17.3754 12.9655C17.407 12.8966 18.0711 11.2759 19.7311 11.2414C19.7311 11.2414 19.7311 11.2414 19.747 11.2414C20.0157 11.2414 20.2213 11.4655 20.2371 11.7586C20.2371 12.0517 20.0315 12.2931 19.7628 12.2931C18.7193 12.3103 18.2924 13.3448 18.2766 13.3966C18.1817 13.5862 18.0078 13.7069 17.8181 13.7069Z" fill="#FFF0E8"/>
<path opacity="0.05" d="M23.9536 12.4828C23.9536 12.5172 23.9536 12.569 24.001 12.5862C24.001 14.9483 24.001 17.3276 24.001 19.6897C24.001 19.9615 23.8736 20.4681 23.7955 20.6897C23.3686 21.8966 22.5781 22.6552 21.4872 23.069C18.4358 24.2069 15.3054 24.6035 12.0959 24.4655C8.23818 24.2931 4.63344 23.1897 1.26585 21.1379C0.427904 20.6207 -0.0305939 19.8621 0.0168369 18.8103C0.0326472 18.4483 0.127509 18.0862 0.19075 17.7241C0.17494 17.7241 18.2461 25.8104 23.9536 12.4828Z" fill="#231F20"/>
</g>
<defs>
<clipPath id="clip0_1329_7542">
<rect width="24" height="24" fill="white" transform="translate(0 0.5)"/>
</clipPath>
</defs>
</svg>
