<svg width="24" height="25" viewBox="0 0 24 25" fill="none" xmlns="http://www.w3.org/2000/svg">
<g clip-path="url(#clip0_1570_14930)">
<path d="M23.7962 20.69C23.3693 21.8969 22.5788 22.6555 21.4879 23.0693C18.4365 24.2073 15.306 24.6038 12.0966 24.4659C8.23885 24.2935 4.63411 23.19 1.26652 21.1383C0.428575 20.6211 -0.0299226 19.8624 0.0175083 18.8107C0.0333186 18.4486 0.12818 18.0866 0.191421 17.7245C0.302093 17.0693 0.254662 16.3969 0.317904 15.7417C0.460196 14.3969 0.839643 13.1211 1.26652 11.8624C2.10446 9.36243 3.13213 6.96588 4.6183 4.82795C5.29814 3.84519 6.02541 2.89692 6.86336 2.05209C8.04913 0.879675 9.44043 0.362434 11.0373 0.517606C11.4009 0.552089 11.7645 0.672778 12.0807 0.862434C12.7132 1.2245 13.3772 1.70726 13.8673 2.27623C14.1677 2.62105 14.3416 3.27623 14.2468 4.1383C14.2309 4.27623 14.1993 4.34519 14.2784 4.44864C14.7053 5.08657 14.6894 5.91416 14.1835 6.48312C13.5037 7.27623 12.7922 8.01761 12.0807 8.77623C11.7804 9.10381 11.4009 9.20726 10.9898 9.20726C10.2468 9.20726 9.48786 9.20726 8.74478 9.20726C8.58668 9.20726 8.55506 9.24174 8.55506 9.41416C8.60249 10.3797 8.7764 11.3452 8.87126 12.3107C8.91869 12.8107 8.95031 13.3279 8.99775 13.8624C9.31395 13.6038 9.61435 13.3797 9.94636 13.19C11.4325 12.3624 12.9503 12.259 14.5155 12.9314C14.7053 13.0176 14.7843 12.9831 14.895 12.7935C16.1914 10.4486 18.1045 9.24174 20.6183 9.2245C22.2942 9.20726 23.7487 10.6728 23.9701 12.4831C23.9701 12.5176 23.9701 12.5693 24.0175 12.5866C24.0175 14.9486 24.0012 17.341 24.0012 19.7031C24.0012 20.1054 23.8794 20.454 23.7962 20.69Z" fill="#EAAF83"/>
<path d="M15.0984 14.4999C13.1222 12.9482 10.3396 13.3965 8.85339 15.5861C8.14193 15.3275 7.98382 13.9482 7.98382 13.9482C7.96801 12.8102 7.77829 11.6723 7.65181 10.5516C7.65181 10.5516 7.62019 8.13783 8.74272 8.13783C9.51742 8.13783 10.2605 8.13783 11.0036 8.13783C11.1775 8.13783 11.3198 8.08611 11.4463 7.94818C12.0945 7.24128 12.7585 6.53439 13.4067 5.81025C13.5332 5.67232 13.5965 5.4999 13.549 5.29301C13.5332 5.24128 13.5332 5.15508 13.4858 5.13784C13.0747 4.81025 13.5016 3.15508 13.138 2.87922C12.7743 2.60335 12.4107 2.34473 12.0471 2.08611C11.6676 1.81025 11.2565 1.6206 10.7822 1.60335C9.45418 1.53439 8.33165 1.99991 7.39884 2.99991C6.45023 4.01715 5.61228 5.13784 4.85339 6.32749C3.54113 8.43094 2.65576 10.7413 1.91268 13.1033C1.54904 14.2585 1.24864 15.4482 1.24864 16.6896C1.24864 17.3102 1.16959 17.9137 1.04311 18.5171C0.885008 19.2758 1.09054 19.793 1.72295 20.1723C3.1775 21.0689 4.69528 21.7758 6.29212 22.3102C9.37513 23.3447 12.5372 23.5689 15.7467 23.293C17.5965 23.1206 19.383 22.6896 21.138 22.0516C22.3079 21.6206 22.9878 20.6896 22.9878 19.362C23.0036 17.2585 23.0036 15.1551 22.9878 13.0516C22.972 11.5171 21.9127 10.3102 20.5688 10.3275C18.4186 10.3447 16.7901 11.3965 15.6992 13.4137L15.0984 14.4999Z" fill="#FFCCA6"/>
<path d="M10.5136 1.58619C10.5927 1.58619 10.6717 1.58619 10.7666 1.58619C11.2251 1.60343 11.652 1.79309 12.0314 2.06895C12.395 2.32757 12.7587 2.58619 13.1223 2.86205C13.486 3.13791 13.0591 4.77585 13.4701 5.12067C13.5176 5.13791 13.5334 5.22412 13.5334 5.27585C13.5808 5.48274 13.5176 5.65516 13.3911 5.79309C12.7429 6.49998 12.0947 7.22412 11.4306 7.93102C11.3041 8.06895 11.1618 8.12067 10.9879 8.12067C10.6401 8.12067 10.2923 8.12067 9.94445 8.12067C9.5492 8.12067 9.13813 8.12067 8.72706 8.12067C7.60453 8.12067 7.63615 10.5345 7.63615 10.5345C7.76263 11.6724 7.95236 12.7931 7.96817 13.931C7.96817 13.931 8.12627 15.3103 8.85354 15.5689C9.75473 14.2586 11.0986 13.5689 12.4741 13.5689C13.3911 13.5689 14.2923 13.8621 15.0828 14.4827L15.6678 13.3793C16.7745 11.3621 18.3871 10.3103 20.5373 10.2931H20.5531C21.897 10.2931 22.9405 11.4827 22.9563 13.0172C22.9721 15.1207 22.9721 17.2241 22.9563 19.3276C22.9405 20.6552 22.2765 21.5862 21.1065 22.0172C19.3516 22.6552 17.565 23.1034 15.7152 23.2586C14.8773 23.3276 14.0551 23.3793 13.233 23.3793C10.8773 23.3793 8.55315 23.0517 6.26066 22.2931C4.66382 21.7586 3.14603 21.0517 1.69149 20.1552C1.05908 19.7758 0.853542 19.2586 1.01164 18.5C1.13813 17.8965 1.21718 17.2931 1.21718 16.6724C1.21718 15.431 1.50176 14.2414 1.88121 13.0862C2.65591 10.7414 3.54129 8.43102 4.85354 6.34481C5.59663 5.13791 6.45038 4.01722 7.399 3.01722C8.26856 2.06895 9.31204 1.58619 10.5136 1.58619ZM10.5136 1.24136V1.58619V1.24136C9.23299 1.24136 8.11046 1.74136 7.16184 2.7586C6.24485 3.72412 5.37528 4.86205 4.58477 6.13791C3.14603 8.44826 2.22904 11.0172 1.59662 13C1.26461 14.0517 0.916783 15.3276 0.916783 16.6896C0.916783 17.2414 0.853542 17.8103 0.72706 18.431C0.537336 19.3448 0.806111 20.0172 1.565 20.4827C3.00374 21.3621 4.56896 22.1034 6.19742 22.6552C8.41085 23.3965 10.7192 23.7586 13.2646 23.7586C14.0709 23.7586 14.9247 23.7241 15.7784 23.6379C17.565 23.4827 19.3516 23.069 21.2488 22.3793C22.5769 21.8965 23.3199 20.8276 23.3199 19.3621C23.3358 17.0345 23.3358 14.9655 23.3199 13.0345C23.3041 11.3103 22.1026 9.9655 20.6006 9.9655H20.5848C18.3397 9.98274 16.6006 11.0689 15.4306 13.2241L15.0196 14C14.2607 13.5 13.4069 13.2241 12.5057 13.2241C11.0512 13.2241 9.72311 13.9138 8.7903 15.1207C8.48991 14.8276 8.34761 14.1724 8.31599 13.9138C8.30018 13.0517 8.18951 12.1896 8.07884 11.3621C8.04722 11.0862 7.99979 10.7931 7.96817 10.5172C7.96817 10.1207 8.04722 9.03447 8.42666 8.62067C8.52153 8.51722 8.61639 8.4655 8.74287 8.4655H9.35947H9.96026C10.3081 8.4655 10.6559 8.4655 11.0037 8.4655C11.2725 8.4655 11.4939 8.36205 11.6836 8.1724L12.2369 7.56895C12.7113 7.05171 13.1697 6.55171 13.6441 6.03447C13.8654 5.79309 13.9445 5.49998 13.8654 5.18964V5.1724C13.8496 5.10343 13.818 4.93102 13.6757 4.82757C13.5966 4.70688 13.6124 4.20688 13.6124 3.91378C13.6282 3.31033 13.6282 2.79309 13.312 2.56895C12.9642 2.31033 12.6164 2.05171 12.2211 1.77585C11.7468 1.43102 11.2725 1.2586 10.7982 1.22412C10.7033 1.24136 10.6085 1.24136 10.5136 1.24136Z" fill="#C66E3E"/>
<path d="M10.0238 16.9483C9.8657 16.9483 9.7076 16.8794 9.58111 16.7587C9.32815 16.4828 9.31234 16.0518 9.5653 15.7587C10.3084 14.9139 12.253 13.6552 14.2926 14.9483C14.6088 15.138 14.7036 15.569 14.5297 15.9139C14.3558 16.2587 13.9606 16.3621 13.6444 16.1725C11.9685 15.1208 10.5614 16.6725 10.4981 16.7415C10.3716 16.8794 10.1977 16.9483 10.0238 16.9483Z" fill="#FFF0E8"/>
<path d="M6.67216 14.3792C6.64053 14.3792 6.60891 14.3792 6.56148 14.3619C6.29271 14.293 6.13461 14.0171 6.18204 13.7412C6.40338 12.6033 6.02393 11.0343 6.00812 11.0171C5.94488 10.7412 6.08717 10.4481 6.34014 10.3619C6.5931 10.2757 6.86188 10.4481 6.94093 10.724C6.95674 10.793 7.39943 12.5688 7.13065 13.9654C7.08322 14.2068 6.8935 14.3792 6.67216 14.3792Z" fill="#FFF0E8"/>
<path d="M17.8182 13.707C17.7549 13.707 17.6917 13.6897 17.6284 13.6552C17.3913 13.5346 17.2648 13.2242 17.3755 12.9656C17.4071 12.8966 18.0711 11.2759 19.7312 11.2415C19.7312 11.2415 19.7312 11.2415 19.747 11.2415C20.0158 11.2415 20.2213 11.4656 20.2371 11.7587C20.2371 12.0518 20.0316 12.2932 19.7628 12.2932C18.7193 12.3104 18.2925 13.3449 18.2767 13.3966C18.1818 13.5863 18.0079 13.707 17.8182 13.707Z" fill="#FFF0E8"/>
<path opacity="0.05" d="M23.9538 12.4827C23.9538 12.5171 23.9538 12.5689 24.0012 12.5861C24.0012 14.9482 24.0012 17.3275 24.0012 19.6896C24.0012 19.9614 23.8738 20.468 23.7957 20.6896C23.3688 21.8965 22.5783 22.6551 21.4874 23.0689C18.436 24.2068 15.3056 24.6034 12.0961 24.4654C8.23836 24.293 4.63362 23.1896 1.26603 21.1378C0.428087 20.6206 -0.0304108 19.862 0.01702 18.8103C0.0328303 18.4482 0.127692 18.0861 0.190933 17.724C0.175123 17.724 18.2463 25.8103 23.9538 12.4827Z" fill="#231F20"/>
</g>
<defs>
<clipPath id="clip0_1570_14930">
<rect width="24" height="24" fill="white" transform="translate(0 0.5)"/>
</clipPath>
</defs>
</svg>
