<svg width="25" height="24" viewBox="0 0 25 24" fill="none" xmlns="http://www.w3.org/2000/svg">
<path d="M18.7626 24C18.3739 24 18.0056 23.9182 17.6783 23.734L12.5427 21.0332C12.5222 21.0332 12.5222 21.0128 12.5018 21.0128C12.4813 21.0128 12.4609 21.0128 12.4609 21.0332L7.32531 23.734C6.97748 23.9182 6.6092 24 6.24091 24C5.54526 24 4.89053 23.6931 4.4404 23.1611C3.99027 22.6292 3.80613 21.9335 3.92889 21.2583L4.91099 15.5499C4.91099 15.509 4.91099 15.4885 4.89053 15.468L0.716616 11.3964C0.0618843 10.7826 -0.16318 9.84143 0.123265 9.00256C0.40971 8.14322 1.12582 7.52941 2.02608 7.40665L7.75498 6.56777C7.7959 6.56777 7.81636 6.54731 7.83682 6.50639L10.3944 1.30946C10.7831 0.511509 11.6015 0 12.5018 0C13.402 0 14.2 0.511509 14.6092 1.30946L17.1667 6.50639C17.1872 6.52685 17.2077 6.54731 17.2486 6.56777L22.9775 7.40665C23.8777 7.52941 24.5939 8.14322 24.8803 9.00256C25.1667 9.86189 24.9212 10.7826 24.2869 11.4169L20.1335 15.4476C20.113 15.468 20.0926 15.509 20.113 15.5294L21.0951 21.2379C21.2179 21.913 21.0338 22.6087 20.5836 23.1407C20.113 23.6931 19.4583 24 18.7626 24Z" fill="#F1B114"/>
<path d="M21.934 7.24297C21.1156 14.1995 13.8726 20.0512 5.38158 19.2941C5.01329 19.2532 4.62454 19.2123 4.25626 19.1714L4.87007 15.5499C4.87007 15.509 4.87007 15.4885 4.84961 15.468L0.716616 11.3964C0.0618843 10.7826 -0.16318 9.84143 0.123265 9.00256C0.40971 8.14322 1.12582 7.52941 2.02608 7.40665L7.75498 6.56777C7.7959 6.56777 7.81636 6.54731 7.83682 6.50639L10.3944 1.30946C10.7831 0.491049 11.6015 0 12.5018 0C13.402 0 14.2205 0.511509 14.6092 1.30946L17.1667 6.50639C17.1872 6.52685 17.2077 6.54731 17.2486 6.56777L21.934 7.24297Z" fill="#F4C90F"/>
<path d="M18.7627 23.1816C18.5171 23.1816 18.2716 23.1202 18.0466 22.9974L12.911 20.3171C12.7882 20.2558 12.6246 20.2148 12.4813 20.2148C12.3381 20.2148 12.1949 20.2558 12.0517 20.3171L6.91612 23.0179C6.69106 23.1407 6.44553 23.2021 6.20001 23.2021C5.74988 23.2021 5.32022 22.9974 5.01331 22.6496C4.72686 22.3018 4.6041 21.8517 4.68594 21.4015L5.66804 15.6931C5.70896 15.4067 5.62712 15.0998 5.40206 14.8951L1.26906 10.8235C0.839397 10.4143 0.696174 9.80052 0.880317 9.24809C1.06446 8.69566 1.53505 8.28645 2.1284 8.20461L7.8573 7.36574C8.14374 7.32481 8.40973 7.14067 8.55295 6.87469L11.1105 1.67776C11.3765 1.14579 11.9085 0.81842 12.5018 0.81842C13.0952 0.81842 13.6271 1.14579 13.8931 1.67776L16.4507 6.87469C16.5734 7.14067 16.8394 7.32481 17.1463 7.36574L22.8752 8.20461C23.4686 8.28645 23.9391 8.69566 24.1233 9.24809C24.3074 9.80052 24.1642 10.4143 23.7345 10.8235L19.5606 14.8747C19.356 15.0793 19.2537 15.3862 19.2946 15.6726L20.2767 21.3811C20.3586 21.8312 20.2358 22.2813 19.9494 22.6292C19.6425 22.977 19.2128 23.1816 18.7627 23.1816Z" fill="#F0841D"/>
<path d="M13.5862 1.8005L16.1642 6.99743C16.3483 7.36571 16.6962 7.61124 17.0849 7.67262L22.8138 8.51149C23.8164 8.65472 24.2256 9.9028 23.489 10.5985L19.356 14.6496C19.0696 14.936 18.9263 15.3453 19.0082 15.734L19.9903 21.4424C20.154 22.445 19.1105 23.202 18.2102 22.7314L13.0747 20.0307C12.7269 19.8465 12.2972 19.8465 11.9289 20.0307L6.79335 22.7314C5.8931 23.202 4.84962 22.445 5.0133 21.4424L5.9954 15.734C6.05678 15.3453 5.93402 14.936 5.64757 14.6496L1.49412 10.5985C0.757547 9.88234 1.16675 8.65472 2.16931 8.51149L7.89821 7.67262C8.30742 7.61124 8.63478 7.36571 8.81893 6.99743L11.3969 1.8005C11.8471 0.900241 13.1361 0.900241 13.5862 1.8005Z" fill="#F9CE1B"/>
<path d="M21.709 8.34784C20.1744 14.6496 14.1386 19.3555 6.91611 19.3555C6.4046 19.3555 5.8931 19.335 5.38159 19.2941L5.9954 15.734C6.05678 15.3453 5.93402 14.9361 5.64757 14.6496L1.49412 10.5985C0.757547 9.88236 1.16675 8.65474 2.16931 8.51152L7.89821 7.67265C8.28696 7.61126 8.63478 7.36574 8.81893 6.99745L11.3969 1.80052C11.8471 0.879806 13.1361 0.879806 13.5862 1.80052L16.1642 6.99745C16.3483 7.36574 16.6962 7.61126 17.0849 7.67265L21.709 8.34784Z" fill="#FADB1B"/>
<path d="M10.3738 7.59076C10.3125 7.59076 10.2511 7.5703 10.1897 7.54984C9.94417 7.44754 9.84186 7.1611 9.94417 6.91557L10.3125 6.05624C10.4148 5.81071 10.7012 5.70841 10.9467 5.81071C11.1922 5.91301 11.2945 6.19946 11.1922 6.44498L10.824 7.30432C10.7217 7.468 10.558 7.59076 10.3738 7.59076Z" fill="#F6E879"/>
<path d="M11.2945 5.38105C11.2332 5.38105 11.1718 5.36059 11.1104 5.34013C10.8649 5.23783 10.7626 4.95138 10.8649 4.70586L11.6015 2.96673C11.7038 2.7212 11.9902 2.6189 12.2357 2.7212C12.4812 2.82351 12.5836 3.10995 12.4812 3.35548L11.7447 5.09461C11.6628 5.25829 11.4787 5.38105 11.2945 5.38105Z" fill="#F6E879"/>
<path d="M3.35594 9.86192C3.13087 9.86192 2.92627 9.69824 2.88535 9.45271C2.84443 9.18673 3.02857 8.9412 3.27409 8.90028L6.07716 8.47061C6.34315 8.42969 6.58867 8.61384 6.62959 8.85936C6.67051 9.12535 6.48637 9.37087 6.24085 9.41179L3.43778 9.84146C3.41732 9.86192 3.39686 9.86192 3.35594 9.86192Z" fill="#F6E879"/>
</svg>
