<svg width="72" height="72" viewBox="0 0 72 72" fill="none" xmlns="http://www.w3.org/2000/svg">
<circle cx="36" cy="36" r="33" fill="#2F93F0" stroke="#BDDBFE" stroke-width="6"/>
<circle cx="34.4118" cy="34.4118" r="28.4118" fill="#4FA9FC"/>
<path d="M7.9418 30.7056C11.6477 14.4703 22.5128 6.35262 38.6477 7.76436C55.0594 8.82321 50.1337 21.606 45.8842 19.6406C41.6347 17.6751 28.8869 29.7956 22.5126 41.916C15.8968 54.4957 4.18584 47.1601 7.9418 30.7056Z" fill="#75B4FE"/>
<path d="M20.4152 14.9354C22.0007 13.4026 27.5169 9.51151 29.3104 11.4584C30.5814 12.8381 27.5609 12.867 24.5642 14.3184C21.5676 15.7698 21.2645 18.577 20.0553 18.269C18.8461 17.9609 18.4334 16.8514 20.4152 14.9354Z" fill="white"/>
<path d="M45.2108 30.7898C44.2979 28.8442 42.7298 27.7526 41.2149 26.6979C40.0844 25.9109 39.016 25.1677 38.2608 24.1061L38.1253 23.9168C37.6788 23.2937 37.1746 22.5875 37.0947 21.9944C37.0147 21.3943 36.4905 20.9673 35.9175 21.002C35.3355 21.0435 34.8846 21.5443 34.8846 22.1513V42.7147C33.954 42.1284 32.8078 41.7684 31.5529 41.7684C28.4921 41.7684 26 43.8386 26 46.3842C26 48.9298 28.4921 51 31.5529 51C34.6137 51 37.1058 48.9298 37.1058 46.3842V26.2617C37.9765 27.2217 38.9893 27.928 39.9777 28.6157C41.3082 29.5412 42.5654 30.4159 43.2162 31.8029C43.6249 32.6684 43.8204 33.6123 43.7715 34.4524C43.6493 36.5087 42.903 38.5766 41.8258 39.8529C41.4193 40.3306 41.4637 41.0599 41.9257 41.4799C42.3833 41.9046 43.0851 41.8538 43.4916 41.3761C44.8821 39.7352 45.8394 37.1365 45.9882 34.5955C46.0614 33.3423 45.7927 32.0268 45.2108 30.7898Z" fill="white"/>
<path fill-rule="evenodd" clip-rule="evenodd" d="M49.5787 21.1845C50.0291 21.5041 50.1351 22.1283 49.8155 22.5787L27.8155 53.5787C27.4958 54.0291 26.8716 54.1351 26.4212 53.8155C25.9708 53.4958 25.8648 52.8716 26.1845 52.4212L48.1845 21.4212C48.5041 20.9708 49.1283 20.8648 49.5787 21.1845Z" fill="white"/>
</svg>
