<svg width="70" height="60" viewBox="0 0 70 60" fill="none" xmlns="http://www.w3.org/2000/svg">
<g clip-path="url(#clip0_2266:4380)">
<path d="M69.7559 21.9981C69.0304 26.0999 67.4818 30.0122 65.2035 33.499C59.9893 41.7774 58.9057 47.808 59.3857 51.9981C60.0329 57.6867 63.5527 60 63.5527 60H-475V0H63.5672C64.8885 1.52274 66.0192 3.20099 66.9343 4.99757C69.7224 10.1984 70.7144 16.175 69.7559 21.9981V21.9981Z" fill="#18AFF7"/>
<path d="M69.7559 21.9981C69.0304 26.0999 67.4818 30.0122 65.2035 33.499C59.9893 41.7774 58.9057 47.808 59.3857 51.9981C60.0329 57.6867 63.5527 60 63.5527 60H-475V0H63.5672C64.8885 1.52274 66.0192 3.20099 66.9343 4.99757C69.7224 10.1984 70.7144 16.175 69.7559 21.9981V21.9981Z" fill="#28CA41"/>
<path d="M69.7559 21.9981C69.0304 26.0999 67.4818 30.0122 65.2035 33.499C59.9893 41.7774 58.9057 47.808 59.3857 51.9981H-463.997V0H63.5672C64.8885 1.52274 66.0192 3.20099 66.9343 4.99757C69.7224 10.1984 70.7144 16.175 69.7559 21.9981V21.9981Z" fill="#33D760"/>
<path d="M66.9346 4.99756C69.7227 10.1984 70.7147 16.175 69.7562 21.998H-439.403C-444.097 21.998 -447.903 18.1924 -447.903 13.4978V13.4978C-447.903 8.80324 -444.097 4.99756 -439.403 4.99756H66.9346Z" fill="#A0FFBB"/>
</g>
<defs>
<clipPath id="clip0_2266:4380">
<rect width="70" height="60" fill="white"/>
</clipPath>
</defs>
</svg>
